<?xml version="1.0" ?><svg xmlns="http://www.w3.org/2000/svg" xmlns:xlink="http://www.w3.org/1999/xlink" version="1.1" viewBox="0 0 512 512" style="enable-background:new 0 0 512 512;" xml:space="preserve"><g id="_x33_5_Productivity"><g><linearGradient id="SVGID_1_" gradientUnits="userSpaceOnUse" x1="285.5213" y1="-214.3919" x2="226.0146" y2="892.4327"><stop offset="0" style="stop-color:#EAE9FE"/><stop offset="0.4236" style="stop-color:#EEEEFE"/><stop offset="0.8967" style="stop-color:#FBFBFF"/><stop offset="1" style="stop-color:#FFFFFF"/></linearGradient><path style="fill:url(#SVGID_1_);" d="M472.914,264.742c-9.683-7.535-21.378-14.027-25.882-25.439    c-6.125-15.52,3.665-32.176,9.439-47.831c17.628-47.798-4.997-104.402-45.589-135.186    C333.444-2.441,182.282,18.144,161.159,99.314c-8.936,34.337,7.074,73.513-9.306,104.987    c-20.667,39.713-75.492,42.391-110.802,60.05c-43.746,21.878-52.499,69.515-21.125,105.783    c11.521,13.318,26.263,22.493,36.829,37.044c15.288,21.055,23.863,44.338,44.319,61.705c28.805,24.456,76.964,30.52,102.464,2.636    c14.359-15.702,19.032-38.836,34.706-53.226c20.633-18.942,53.243-16.394,79.499-6.639c26.255,9.754,50.606,25.505,78.261,29.944    c43.239,6.94,89.601-18.431,107.066-58.591S507.476,291.636,472.914,264.742z"/><path style="fill:#EDEDED;" d="M461.346,301.683h-25.758v82.039c0,20.462-16.588,37.05-37.05,37.05H277.491v59.931    c0,9.983-8.093,18.076-18.076,18.076H130.165c-9.983,0-18.076-8.093-18.076-18.076V373.238c0-9.532-3.766-18.677-10.52-25.403    c-37.553-37.398-59.995-89.898-57.457-147.682c4.336-98.727,83.923-180.054,182.535-186.499    c114.091-7.457,208.942,82.864,208.942,195.352l39.531,68.897C481.193,288.488,473.551,301.683,461.346,301.683z"/><path style="fill:#386E93;" d="M366.265,355.251L366.265,355.251c0,9.462,7.67,17.132,17.132,17.132h52.143v-34.263h-52.143    C373.935,338.119,366.265,345.789,366.265,355.251z"/><path style="fill:#F9BB40;" d="M259.412,56.433l-0.628,5.461c-0.437,3.823-2.921,7.1-6.499,8.575    c-0.055,0-0.083,0.027-0.109,0.054c-3.551,1.448-7.592,0.901-10.596-1.474l-4.341-3.441c-4.232-3.331-10.267-2.977-14.063,0.818    l-15.511,15.511c-3.823,3.795-4.151,9.857-0.819,14.063l3.249,4.123c2.403,3.031,2.949,7.128,1.475,10.677    c-0.055,0.109-0.109,0.246-0.164,0.355c-1.447,3.523-4.752,5.98-8.52,6.417l-5.243,0.628c-5.352,0.601-9.365,5.133-9.365,10.513    l0,21.955c0,5.379,4.013,9.913,9.366,10.514l4.861,0.573c3.823,0.437,7.127,2.922,8.574,6.499    c0.083,0.246,0.192,0.465,0.273,0.683c1.475,3.523,0.901,7.592-1.501,10.596l-3.004,3.823c-3.359,4.233-3.004,10.267,0.792,14.064    l15.538,15.538c3.796,3.796,9.831,4.151,14.063,0.82l3.632-2.895c3.031-2.403,7.127-2.977,10.649-1.475    c0.3,0.137,0.601,0.273,0.901,0.382c3.551,1.448,6.008,4.752,6.444,8.548l0.547,4.615c0.628,5.353,5.161,9.366,10.54,9.366    l21.928,0c5.352,0,9.884-4.013,10.513-9.366l0.545-4.615c0.437-3.795,2.895-7.099,6.444-8.547    c0.301-0.109,0.601-0.245,0.901-0.382c3.549-1.502,7.619-0.929,10.623,1.475l3.659,2.895c4.233,3.331,10.268,2.977,14.063-0.819    l15.539-15.537c3.795-3.796,4.149-9.831,0.819-14.064l-3.059-3.85c-2.376-3.004-2.949-7.046-1.475-10.595    c0.083-0.219,0.192-0.41,0.273-0.656c1.447-3.577,4.751-6.062,8.547-6.526l4.888-0.546c5.325-0.628,9.367-5.161,9.367-10.541    l0-21.928c0-5.379-4.041-9.912-9.367-10.513l-5.243-0.628c-3.796-0.437-7.072-2.895-8.52-6.418    c-0.055-0.109-0.081-0.218-0.136-0.327c-1.503-3.55-0.956-7.619,1.42-10.65l3.304-4.178c3.331-4.205,2.976-10.267-0.819-14.063    l-15.511-15.511c-3.796-3.795-9.858-4.15-14.063-0.819l-4.343,3.441c-3.004,2.375-7.072,2.949-10.595,1.474    c-0.055-0.027-0.109-0.054-0.136-0.054c-3.551-1.475-6.063-4.752-6.5-8.575l-0.627-5.461c-0.629-5.352-5.161-9.366-10.542-9.366    l-21.9,0C264.545,47.066,260.04,51.08,259.412,56.433z M321.267,139.693c0,22.281-18.082,40.363-40.363,40.363    c-22.305,0-40.363-18.083-40.363-40.364c0-22.281,18.058-40.363,40.363-40.363C303.184,99.33,321.266,117.413,321.267,139.693z"/><path style="fill:#2769FD;" d="M174.327,212.669l-2.01,3.602c-1.405,2.522-4.071,4.076-6.974,4.065    c-0.038-0.016-0.065-0.005-0.091,0.006c-2.877-0.021-5.519-1.565-6.914-4.076l-2.015-3.635c-1.971-3.528-6.253-5.022-9.977-3.488    l-15.216,6.271c-3.742,1.527-5.717,5.631-4.622,9.505l1.062,3.793c0.79,2.793-0.012,5.787-2.057,7.821    c-0.069,0.06-0.147,0.139-0.216,0.199c-2.018,2.023-5.016,2.772-7.752,1.988l-3.812-1.077c-3.88-1.127-7.967,0.855-9.518,4.581    l-6.33,15.207c-1.551,3.726-0.078,8.023,3.456,9.983l3.202,1.799c2.522,1.405,4.094,4.079,4.065,6.974    c-0.014,0.194-0.001,0.377-0.008,0.552c0.006,2.865-1.564,5.518-4.095,6.906l-3.183,1.782c-3.547,1.963-5.041,6.246-3.506,9.97    l6.282,15.242c1.535,3.724,5.613,5.71,9.504,4.623l3.35-0.958c2.792-0.791,5.795-0.007,7.802,2.049    c0.168,0.181,0.338,0.363,0.514,0.525c2.042,2.027,2.791,5.024,1.999,7.779l-0.952,3.354c-1.108,3.889,0.875,7.976,4.6,9.527    l15.189,6.323c3.707,1.543,8.003,0.07,9.983-3.456l1.708-3.039c1.397-2.503,4.052-4.083,6.928-4.062    c0.24,0.012,0.487,0.003,0.734-0.005c2.892-0.017,5.545,1.554,6.933,4.085l1.7,3.06c1.972,3.528,6.254,5.023,9.977,3.487    l15.243-6.282c3.723-1.535,5.709-5.613,4.622-9.505l-1.009-3.549c-0.78-2.766-0.012-5.731,2.033-7.764    c0.12-0.128,0.251-0.229,0.378-0.376c2.033-2.06,5.038-2.829,7.802-2.056l3.543,1.031c3.87,1.101,7.976-0.874,9.527-4.6    l6.322-15.188c1.551-3.726,0.059-8.031-3.457-9.983l-3.45-1.947c-2.503-1.397-4.064-4.044-4.051-6.902    c-0.006-0.091,0.007-0.174,0-0.266c-0.017-2.892,1.535-5.553,4.054-6.967l3.493-1.941c3.52-1.952,5.022-6.254,3.488-9.977    l-6.271-15.216c-1.535-3.723-5.631-5.717-9.505-4.622l-4,1.131c-2.766,0.779-5.749,0.003-7.763-2.034    c-0.03-0.034-0.06-0.069-0.079-0.077c-2.034-2.045-2.829-5.039-2.03-7.814l1.141-3.964c1.107-3.889-0.875-7.976-4.601-9.527    l-15.169-6.315C180.583,207.661,176.305,209.143,174.327,212.669z M193.164,288.174c-6.424,15.433-24.163,22.744-39.595,16.319    c-15.449-6.432-22.744-24.163-16.32-39.596c6.424-15.433,24.146-22.751,39.595-16.319    C192.277,255.002,199.588,272.741,193.164,288.174z"/><path style="fill:#332E8E;" d="M130.165,503.691h129.249c12.675,0,22.987-10.311,22.987-22.987v-55.022h116.136    c23.137,0,41.962-18.821,41.962-41.959v-77.13h20.847c15.972,0,25.992-17.26,18.033-31.133l-38.885-67.772    C439.746,94.597,344.462,1.066,226.326,8.752C125.819,15.322,43.625,99.3,39.205,199.938    c-2.479,56.457,18.989,111.633,58.9,151.379c5.851,5.825,9.073,13.61,9.073,21.919v107.467    C107.178,493.38,117.491,503.691,130.165,503.691z M105.035,344.357c-38.517-38.359-58.411-89.493-56.018-143.991    c4.204-95.705,82.368-175.565,177.949-181.812c112.973-7.396,203.712,82.547,203.712,190.451c0,0.857,0.224,1.701,0.651,2.443    l39.53,68.897c4.194,7.307-1.074,16.427-9.513,16.427h-25.757c-2.713,0-4.911,2.2-4.911,4.911v31.527h-47.282    c-12.154,0-22.042,9.889-22.042,22.041c0,12.155,9.889,22.044,22.042,22.044h47.282v6.429c0,17.721-14.419,32.137-32.14,32.137    H277.491c-2.713,0-4.911,2.2-4.911,4.911v59.933c0,7.261-5.907,13.166-13.166,13.166H130.165c-7.259,0-13.166-5.905-13.166-13.166    V373.236C117,362.293,112.751,352.036,105.035,344.357z M430.628,343.03v24.442h-47.232c-6.738,0-12.221-5.483-12.221-12.223    c0-6.736,5.483-12.219,12.221-12.219H430.628z"/><path style="fill:#332E8E;" d="M197.069,166.058l4.877,0.575c2.057,0.237,3.811,1.563,4.479,3.191    c0.09,0.265,0.19,0.512,0.396,1.01c0.785,1.873,0.475,4.032-0.831,5.665l-2.989,3.801c-4.901,6.174-4.401,15.026,1.165,20.589    l15.536,15.538c5.55,5.547,14.392,6.068,20.597,1.189l3.622-2.89c1.632-1.288,3.811-1.602,5.555-0.854    c0.424,0.192,0.85,0.377,1.09,0.46c1.874,0.764,3.184,2.513,3.421,4.581l0.547,4.607c0.916,7.814,7.545,13.706,15.418,13.706    h21.929c7.857,0,14.472-5.892,15.389-13.696l0.548-4.636c0.235-2.046,1.546-3.795,3.235-4.489c0.424-0.153,0.85-0.342,1.146-0.48    c1.883-0.786,4.038-0.489,5.662,0.809l3.667,2.9c6.182,4.866,15.025,4.348,20.572-1.205l15.538-15.538    c5.55-5.55,6.068-14.393,1.193-20.592l-3.052-3.837c-1.272-1.611-1.576-3.782-0.739-5.793c0.123-0.272,0.241-0.553,0.238-0.575    c0.769-1.899,2.527-3.239,4.535-3.485l4.924-0.55c7.81-0.924,13.7-7.552,13.7-15.416v-21.929c0-7.89-5.9-14.508-13.692-15.388    l-5.266-0.633c-2.033-0.233-3.774-1.538-4.541-3.405c-0.016-0.042-0.034-0.083-0.053-0.125c-0.037-0.09-0.085-0.205-0.102-0.246    c-0.802-1.899-0.51-4.086,0.748-5.694l3.303-4.175c4.885-6.167,4.37-15.017-1.196-20.583L342.13,62.955    c-5.568-5.566-14.416-6.084-20.586-1.196l-4.338,3.437c-1.613,1.279-3.777,1.583-5.449,0.886    c-0.129-0.061-0.267-0.118-0.409-0.173c-1.897-0.812-3.216-2.558-3.446-4.575l-0.628-5.477    c-0.919-7.811-7.548-13.703-15.42-13.703h-21.9c-7.873,0-14.5,5.892-15.418,13.706c0,0.003-0.002,0.01-0.002,0.013l-0.627,5.461    c-0.233,2.043-1.571,3.801-3.491,4.594l0.002,0.003c-0.074,0.029-0.147,0.061-0.219,0.093c-1.889,0.716-4.011,0.403-5.568-0.825    l-4.354-3.45c-6.177-4.869-15.022-4.345-20.572,1.205l-15.498,15.496c-5.592,5.55-6.111,14.406-1.217,20.589l3.259,4.134    c1.28,1.618,1.584,3.808,0.793,5.723l-0.027,0.061c-0.054,0.109-0.104,0.221-0.15,0.332c-0.753,1.835-2.537,3.172-4.561,3.408    l-5.208,0.623c-7.825,0.876-13.727,7.494-13.727,15.391v21.954C183.368,158.564,189.27,165.185,197.069,166.058z M193.19,128.713    c0-2.89,2.15-5.31,5.037-5.636l5.227-0.623c5.573-0.649,10.352-4.249,12.481-9.399l0.027-0.058    c0.051-0.102,0.098-0.205,0.142-0.31c2.168-5.214,1.34-11.196-2.152-15.602l-3.258-4.131c-1.795-2.27-1.611-5.505,0.441-7.545    l15.511-15.509c2.037-2.033,5.283-2.219,7.54-0.441l4.345,3.443c4.37,3.456,10.311,4.29,15.498,2.168    c0.102-0.042,0.201-0.086,0.299-0.134c5.131-2.187,8.701-6.95,9.334-12.481l0.625-5.448c0.337-2.868,2.772-5.029,5.664-5.029h21.9    c2.892,0,5.328,2.161,5.664,5.016l0.627,5.457c0.636,5.576,4.275,10.387,9.495,12.555c0.043,0.016,0.085,0.032,0.128,0.051    c5.168,2.161,11.119,1.333,15.536-2.158l4.34-3.44c2.262-1.79,5.504-1.599,7.544,0.441l15.511,15.512    c2.04,2.04,2.23,5.285,0.44,7.545l-3.32,4.195c-3.47,4.434-4.267,10.407-1.949,15.87c-0.053-0.106-0.099-0.211-0.134-0.304    c0.029,0.077,0.075,0.192,0.125,0.307c2.124,5.17,6.915,8.782,12.477,9.425l5.277,0.633c2.855,0.323,5.007,2.743,5.007,5.633    v21.929c0,2.89-2.163,5.323-4.997,5.659l-4.946,0.55c-5.606,0.691-10.395,4.354-12.568,9.742c-0.024,0.051-0.165,0.38-0.187,0.432    c-2.15,5.173-1.324,11.123,2.164,15.538l3.045,3.83c1.787,2.273,1.602,5.521-0.433,7.555l-15.538,15.538    c-2.038,2.033-5.283,2.219-7.545,0.438l-3.635-2.874c-4.422-3.539-10.399-4.364-15.734-2.11c-0.177,0.083-0.352,0.169-0.713,0.304    c-5.195,2.12-8.822,6.922-9.467,12.513l-0.547,4.623c-0.336,2.865-2.759,5.026-5.635,5.026h-21.929    c-2.892,0-5.328-2.161-5.664-5.035l-0.545-4.594c-0.643-5.614-4.271-10.416-9.652-12.606c-0.177-0.064-0.352-0.147-0.644-0.281    c-1.928-0.822-3.966-1.224-5.996-1.224c-3.43,0-6.837,1.151-9.642,3.376l-3.606,2.877c-2.27,1.787-5.52,1.599-7.555-0.435    l-15.538-15.538c-2.035-2.033-2.214-5.275-0.403-7.558l2.978-3.789c3.526-4.409,4.367-10.371,2.273-15.362    c-0.029-0.077-0.173-0.435-0.205-0.505l-4.519,1.921l4.396-2.241c-2.118-5.237-6.933-8.891-12.552-9.534l-4.888-0.575    c-2.852-0.323-5.002-2.743-5.002-5.636V128.713z"/><path style="fill:#332E8E;" d="M280.904,184.966c24.965,0,45.274-20.311,45.274-45.274s-20.31-45.274-45.274-45.274    s-45.274,20.311-45.274,45.274S255.939,184.966,280.904,184.966z M280.904,104.239c19.549,0,35.453,15.906,35.453,35.453    s-15.904,35.453-35.453,35.453s-35.453-15.906-35.453-35.453S261.355,104.239,280.904,104.239z"/><path style="fill:#332E8E;" d="M121.142,319.679c0.269,0.288,0.542,0.575,0.667,0.681c0.761,0.755,1.044,1.88,0.735,2.951    l-0.953,3.351c-1.786,6.276,1.412,12.9,7.436,15.407l15.189,6.324c6.015,2.5,12.958,0.102,16.15-5.582l1.715-3.053    c0.536-0.956,1.527-1.547,2.435-1.547c0.003,0,0.006,0,0.01,0c0.368,0.016,0.748,0.01,0.958-0.003c0.005,0,0.011,0,0.016,0    c1.074,0,2.064,0.588,2.598,1.56l1.706,3.069c2.337,4.185,6.708,6.605,11.249,6.602c1.635,0,3.293-0.313,4.887-0.969l15.242-6.282    c6.019-2.481,9.233-9.086,7.473-15.384l-1.004-3.542c-0.297-1.052-0.003-2.18,0.825-3.005c0.075-0.067,0.221-0.214,0.352-0.352    h0.002c0.767-0.78,1.912-1.09,2.933-0.79l3.574,1.039c6.281,1.8,12.897-1.413,15.404-7.436l6.322-15.189    c2.516-6.043,0.105-12.993-5.577-16.145l-3.47-1.957c-0.951-0.531-1.538-1.525-1.533-2.593c0-0.038,0-0.077-0.002-0.115    c0.002-0.077,0.002-0.163,0.002-0.201c-0.006-1.1,0.585-2.116,1.53-2.647l3.488-1.941c5.708-3.162,8.137-10.103,5.646-16.139    l-6.271-15.221c-2.491-6.036-9.107-9.249-15.378-7.472l-4,1.129c-1.057,0.294-2.182,0.003-2.941-0.764v0.003    c-0.032-0.035-0.064-0.067-0.098-0.099c-0.783-0.793-1.082-1.934-0.782-2.98l1.146-3.974c1.786-6.276-1.412-12.9-7.436-15.407    l-15.173-6.317c-6.022-2.51-12.977-0.109-16.168,5.582c-0.003,0.003-0.005,0.006-0.006,0.01l-2.009,3.603    c-0.534,0.959-1.65,1.451-2.67,1.544v0.003c-0.059-0.003-0.121,0-0.179,0c-1.071-0.045-2.04-0.63-2.546-1.544l-2.024-3.648    c-3.184-5.694-10.122-8.111-16.136-5.633l-15.199,6.266c-6.054,2.468-9.275,9.083-7.496,15.372l1.065,3.811    c0.296,1.039,0.011,2.161-0.74,2.945c-0.112,0.102-0.233,0.217-0.283,0.265c-0.743,0.745-1.891,1.033-2.941,0.732l-3.779-1.068    c-6.273-1.826-12.902,1.365-15.42,7.411l-6.33,15.209c-2.518,6.046-0.106,12.993,5.584,16.149l3.219,1.81    c0.962,0.537,1.554,1.544,1.555,2.321c-0.018,0.253-0.021,0.499-0.021,0.924c0.002,1.074-0.59,2.065-1.583,2.612l-3.162,1.768    c-5.72,3.165-8.157,10.103-5.668,16.136l6.282,15.244c2.479,6.02,9.083,9.224,15.394,7.475l3.336-0.956    C119.356,318.723,120.489,319.014,121.142,319.679z M112.279,310.532c-1.485,0.409-3.055-0.342-3.641-1.765l-6.282-15.247    c-0.585-1.416-0.008-3.05,1.364-3.811l3.146-1.758c4.11-2.254,6.656-6.554,6.642-11.033c0.002-0.045,0.011-0.639,0.011-0.684    c0.046-4.69-2.478-9.025-6.57-11.302l-3.226-1.813c-1.336-0.742-1.897-2.375-1.304-3.801l6.33-15.209    c0.595-1.423,2.152-2.177,3.649-1.742l3.797,1.074c4.476,1.279,9.302,0.038,12.529-3.194c0.086-0.074,0.171-0.153,0.253-0.233    c3.322-3.303,4.593-8.146,3.322-12.625l-1.065-3.808c-0.42-1.483,0.333-3.04,1.768-3.626l15.217-6.273    c1.421-0.579,3.063-0.006,3.809,1.33l2.017,3.638c2.243,4.035,6.522,6.567,11.169,6.602c0.117,0.006,0.201-0.003,0.301-0.006    c4.612-0.051,8.85-2.561,11.092-6.583l2.005-3.597c0.769-1.362,2.383-1.909,3.829-1.314l15.172,6.317    c1.429,0.595,2.187,2.164,1.768,3.635l-1.141,3.961c-1.288,4.473-0.037,9.316,3.269,12.638c0.027,0.026,0.054,0.054,0.082,0.08    c3.272,3.296,8.084,4.559,12.574,3.29l4.004-1.129c1.472-0.422,3.037,0.339,3.627,1.765l6.271,15.221    c0.588,1.423,0.018,3.06-1.333,3.811l-3.51,1.95c-3.968,2.225-6.455,6.381-6.548,11.203h-0.011    c-0.003,0.077-0.003,0.182-0.003,0.291c-0.021,4.645,2.495,8.939,6.549,11.203l3.482,1.963c1.336,0.742,1.897,2.375,1.304,3.801    l-6.322,15.189c-0.596,1.426-2.166,2.19-3.619,1.771l-3.594-1.045c-4.505-1.263-9.344,0.019-12.708,3.427    c-0.034,0.032-0.224,0.217-0.256,0.249c-3.299,3.28-4.562,8.098-3.296,12.587l1.001,3.53c0.417,1.493-0.34,3.06-1.763,3.645    l-15.242,6.282c-1.42,0.575-3.064,0.01-3.813-1.333l-1.686-3.034c-2.244-4.095-6.525-6.634-11.346-6.634c-0.029,0-0.056,0-0.085,0    l-0.504,0.003c-4.588-0.016-8.966,2.484-11.247,6.564l-1.71,3.044c-0.756,1.346-2.391,1.915-3.811,1.327l-15.191-6.324    c-1.429-0.595-2.187-2.164-1.763-3.651l0.948-3.341c1.296-4.505,0.046-9.339-3.406-12.76l-0.312-0.329    c-3.267-3.347-8.122-4.626-12.667-3.341L112.279,310.532z"/><path style="fill:#332E8E;" d="M151.68,309.026c4.356,1.813,8.936,2.721,13.519,2.721c4.543,0,9.088-0.892,13.417-2.676    c8.695-3.584,15.471-10.333,19.082-19.01c3.611-8.674,3.627-18.239,0.043-26.936c-3.584-8.693-10.335-15.471-19.008-19.08    c-8.685-3.616-18.254-3.632-26.942-0.048c-8.69,3.584-15.464,10.336-19.075,19.013    C125.259,280.923,133.767,301.567,151.68,309.026z M141.782,266.783c2.604-6.254,7.488-11.123,13.752-13.706    c3.119-1.285,6.394-1.928,9.67-1.928c3.306,0,6.61,0.655,9.754,1.963c6.252,2.602,11.118,7.488,13.703,13.757    c2.583,6.27,2.572,13.166-0.03,19.419c-2.604,6.254-7.489,11.12-13.757,13.703c-6.268,2.583-13.162,2.574-19.418-0.032    C142.541,294.581,136.406,279.699,141.782,266.783z"/></g></g><g id="Layer_1"/></svg>